<svg width="94" height="94" viewBox="0 0 94 94" fill="none" xmlns="http://www.w3.org/2000/svg">
<g id="aws 2">
<path id="Vector" d="M88.125 56.259V59.9985C88.125 66.7753 80.6491 73.7842 71.534 73.7842H22.466C13.2364 73.7842 5.875 66.8898 5.875 59.9955V56.259H88.125Z" fill="#9D5125"/>
<path id="Vector_2" d="M37.5354 19.9221C41.5862 19.9076 45.5539 21.0712 48.9554 23.271C52.3568 25.4709 55.0454 28.6122 56.6937 32.3125C58.4823 31.0881 60.601 30.4365 62.7685 30.4442C65.5364 30.4157 68.2042 31.4787 70.194 33.4031C72.1838 35.3274 73.3353 37.9582 73.3993 40.7255C77.2101 41.1657 80.7534 42.9032 83.4347 45.6466C86.1161 48.3899 87.7721 51.9721 88.125 55.7919V57.1931C88.125 64.0874 80.6491 70.9788 71.4165 70.9788H22.466C13.2364 70.9788 5.875 64.0845 5.875 57.1931V55.7919C6.06817 52.6392 7.17681 49.6113 9.06506 47.0792C10.9533 44.5471 13.5392 42.6207 16.5058 41.5362V40.9487C16.4945 38.1841 17.0308 35.4446 18.0837 32.8882C19.1366 30.3319 20.6852 28.0093 22.6403 26.0545C24.5953 24.0997 26.9181 22.5514 29.4746 21.4989C32.0311 20.4464 34.7707 19.9105 37.5354 19.9221Z" fill="#F58535"/>
<path id="Vector_3" d="M26.4375 44.3416L20.9473 63.5029H24.2168L25.5034 58.8293H31.1111L32.2861 63.5029H35.5438L30.4031 44.3416H26.4375ZM25.9704 56.3853L28.3204 46.9207L30.5412 56.3853H25.9704Z" fill="white"/>
<path id="Vector_4" d="M49.3353 59.4139H49.2207L46.6504 44.3416H43.3781L40.9253 59.2964H40.8078L38.2374 44.3416H35.2001L38.9395 63.6174H42.4439L44.8968 49.1326H45.0142L47.4671 63.6174H51.089L54.9459 44.3416H51.7911L49.3353 59.4139Z" fill="white"/>
<path id="Vector_5" d="M64.8747 53.1041L62.7714 52.4021C60.6682 51.5854 59.8516 50.6396 59.8516 49.0151C59.8125 48.6465 59.8515 48.2738 59.9658 47.9213C60.0802 47.5687 60.2674 47.2441 60.5153 46.9685C60.7632 46.693 61.0663 46.4727 61.4049 46.3218C61.7435 46.171 62.11 46.0931 62.4806 46.0931C62.8513 46.0931 63.2178 46.171 63.5564 46.3218C63.895 46.4727 64.1981 46.693 64.446 46.9685C64.6939 47.2441 64.8811 47.5687 64.9954 47.9213C65.1098 48.2738 65.1487 48.6465 65.1097 49.0151V49.3647H68.15V48.8976C68.15 46.9119 67.6829 43.8745 62.6598 43.8745C61.8933 43.7744 61.1142 43.8437 60.3773 44.0773C59.6405 44.3109 58.9638 44.7033 58.395 45.2267C57.8262 45.7502 57.3791 46.392 57.0852 47.1069C56.7912 47.8218 56.6576 48.5925 56.6937 49.3647C56.6275 50.5867 57.0046 51.7916 57.7559 52.7577C58.5072 53.7237 59.582 54.3861 60.7827 54.6228L62.886 55.3249C63.6948 55.4311 64.4334 55.8392 64.9538 56.4675C65.4741 57.0957 65.7376 57.8974 65.6913 58.7118C65.7034 59.0933 65.6352 59.4731 65.4912 59.8266C65.3472 60.1801 65.1306 60.4994 64.8553 60.7639C64.5801 61.0283 64.2523 61.232 63.8934 61.3618C63.5344 61.4915 63.1522 61.5445 62.7714 61.5171C60.6682 61.5171 59.6166 60.349 59.6166 58.0127V57.5456H56.5792V58.0127C56.4828 58.8031 56.5676 59.605 56.8272 60.3577C57.0868 61.1105 57.5142 61.7943 58.0773 62.3573C58.6403 62.9203 59.3241 63.3478 60.0768 63.6074C60.8295 63.8669 61.6315 63.9517 62.4219 63.8554C66.2759 63.8554 68.8462 62.2192 68.8462 58.1302C68.8626 56.9636 68.4767 55.827 67.7534 54.9116C67.0301 53.9962 66.0135 53.3579 64.8747 53.1041Z" fill="white"/>
</g>
</svg>
