<svg width="94" height="94" viewBox="0 0 94 94" fill="none" xmlns="http://www.w3.org/2000/svg">
<g id="bootstrap-4-logo 1" clip-path="url(#clip0_13_458)">
<path id="Vector" d="M0 81.8795C0 88.5741 5.42666 94 12.1205 94H81.8791C88.5741 94 94 88.5733 94 81.8795V12.1209C94 5.42593 88.5733 0 81.8795 0H12.1209C5.42593 0 0 5.42666 0 12.1205V81.8795Z" fill="#563D7C"/>
<path id="Vector_2" d="M38.9799 41.5796V28.2679H50.6973C51.8135 28.2679 52.8894 28.3608 53.9256 28.547C54.9618 28.7328 55.8786 29.0647 56.6758 29.5432C57.4726 30.0216 58.1104 30.6859 58.5889 31.5359C59.0669 32.3863 59.3063 33.4758 59.3063 34.8039C59.3063 37.1954 58.5889 38.9226 57.1539 39.9853C55.7193 41.0483 53.8859 41.5796 51.6538 41.5796H38.9799ZM26.4651 18.543V75.457H54.0453C56.5961 75.457 59.0805 75.1383 61.4984 74.5005C63.9164 73.8627 66.0685 72.8797 67.9551 71.5513C69.8413 70.2228 71.3427 68.5087 72.4586 66.4099C73.5749 64.3107 74.1326 61.8263 74.1326 58.9567C74.1326 55.3961 73.269 52.354 71.5421 49.8299C69.8149 47.3055 67.1976 45.5386 63.6902 44.5288C66.241 43.3068 68.1677 41.7389 69.4697 39.8259C70.7714 37.9128 71.4224 35.5217 71.4224 32.6518C71.4224 29.9948 70.984 27.763 70.1072 25.9561C69.2303 24.1496 67.9947 22.7014 66.4004 21.6119C64.8064 20.5225 62.8934 19.7385 60.6613 19.2605C58.4295 18.782 55.9583 18.543 53.2481 18.543H26.4651ZM38.9799 65.7321V50.1086H52.6103C55.3205 50.1086 57.4994 50.7328 59.147 51.982C60.7942 53.2308 61.6182 55.3164 61.6182 58.2392C61.6182 59.7275 61.3655 60.9495 60.8606 61.906C60.3558 62.8625 59.6783 63.62 58.8279 64.1778C57.9779 64.7359 56.9945 65.1343 55.8786 65.3737C54.7624 65.6124 53.5936 65.7321 52.3713 65.7321H38.9799Z" fill="white"/>
</g>
<defs>
<clipPath id="clip0_13_458">
<rect width="94" height="94" fill="white"/>
</clipPath>
</defs>
</svg>
