<svg width="94" height="94" viewBox="0 0 94 94" fill="none" xmlns="http://www.w3.org/2000/svg">
<g id="figma 1">
<path id="Vector" fill-rule="evenodd" clip-rule="evenodd" d="M47 47C47 40.5108 52.2608 35.25 58.75 35.25C65.2392 35.25 70.5 40.5108 70.5 47C70.5 53.4892 65.2392 58.75 58.75 58.75C52.2608 58.75 47 53.4892 47 47Z" fill="#1ABCFE"/>
<path id="Vector_2" fill-rule="evenodd" clip-rule="evenodd" d="M23.5 70.5C23.5 64.0108 28.7607 58.75 35.25 58.75H47V70.5C47 76.9892 41.7392 82.25 35.25 82.25C28.7607 82.25 23.5 76.9892 23.5 70.5Z" fill="#0ACF83"/>
<path id="Vector_3" fill-rule="evenodd" clip-rule="evenodd" d="M47 11.75V35.25H58.75C65.2392 35.25 70.5 29.9892 70.5 23.5C70.5 17.0107 65.2392 11.75 58.75 11.75H47Z" fill="#FF7262"/>
<path id="Vector_4" fill-rule="evenodd" clip-rule="evenodd" d="M23.5 23.5C23.5 29.9892 28.7607 35.25 35.25 35.25H47V11.75H35.25C28.7607 11.75 23.5 17.0107 23.5 23.5Z" fill="#F24E1E"/>
<path id="Vector_5" fill-rule="evenodd" clip-rule="evenodd" d="M23.5 47C23.5 53.4892 28.7607 58.75 35.25 58.75H47V35.25H35.25C28.7607 35.25 23.5 40.5108 23.5 47Z" fill="#A259FF"/>
</g>
</svg>
