<svg width="94" height="94" viewBox="0 0 94 94" fill="none" xmlns="http://www.w3.org/2000/svg">
<g id="github-octocat 1">
<g id="Group">
<path id="Vector" d="M73.4273 72.4304C73.4273 77.4694 61.7543 81.5295 47.3625 81.5295C32.9707 81.5295 21.2977 77.4331 21.2977 72.4304C21.2977 67.3915 32.9707 63.3313 47.3625 63.3313C61.7543 63.3313 73.4273 67.3915 73.4273 72.4304Z" fill="#9EDCF2"/>
<g id="Group_2">
<g id="Clip path group">
<mask id="mask0_13_424" style="mask-type:luminance" maskUnits="userSpaceOnUse" x="32" y="69" width="30" height="25">
<g id="SVGID_2_">
<path id="Vector_2" d="M36.1608 88.7435C36.7408 91.4624 38.1546 93.0575 39.5684 94H54.4678C56.2804 92.7674 58.1292 90.4474 58.1292 86.0972V74.8592C58.1292 74.8592 58.3467 72.0679 60.9205 71.1616C60.9205 71.1616 62.4069 70.1103 60.8118 69.5303C60.8118 69.5303 53.7428 68.9502 53.7428 74.7505V83.3058C53.7428 83.3058 54.0328 86.4597 52.3652 87.7647V77.1793C52.3652 77.1793 52.474 73.8079 54.214 72.5391C54.214 72.5391 55.3741 70.4728 52.8365 71.0166C52.8365 71.0166 47.9788 71.7054 47.7613 77.3968L47.6525 88.2723H46.4925L46.3837 77.3968C46.1662 71.7416 41.3085 71.0166 41.3085 71.0166C38.7709 70.4366 39.931 72.5391 39.931 72.5391C41.671 73.8079 41.7798 77.1793 41.7798 77.1793V87.8735C40.1122 86.6772 40.4022 83.3058 40.4022 83.3058V74.7505C40.4022 68.9502 33.3332 69.5303 33.3332 69.5303C31.7019 70.1103 33.2244 71.1616 33.2244 71.1616C35.762 72.1041 36.0158 74.8592 36.0158 74.8592V82.7258L36.1608 88.7435Z" fill="white"/>
</g>
</mask>
<g mask="url(#mask0_13_424)">
<path id="Vector_3" d="M73.4273 72.4304C73.4273 77.4694 61.7543 81.5295 47.3625 81.5295C32.9707 81.5295 21.2977 77.4331 21.2977 72.4304C21.2977 67.3915 32.9707 63.3313 47.3625 63.3313C61.7543 63.3313 73.4273 67.3915 73.4273 72.4304Z" fill="#7DBCE7"/>
</g>
</g>
</g>
<path id="Vector_4" d="M17.6001 45.6406L16.8388 48.2507C16.8388 48.2507 16.6575 49.1932 17.5276 49.3745C18.4701 49.3382 18.3976 48.4682 18.3251 48.2144L17.6001 45.6406Z" fill="#9EDCF2"/>
<path id="Vector_5" d="M93.3293 34.6564L93.4018 34.3301C85.7528 32.8076 77.9225 32.7713 73.1735 32.9888C73.9348 30.1975 74.1886 26.9348 74.1886 23.3459C74.1886 18.162 72.231 14.0293 69.1134 10.9117C69.6572 9.13537 70.3822 5.18396 68.3884 0.145012C68.3884 0.145012 64.8357 -0.978783 56.7516 4.42268C53.5978 3.62515 50.2264 3.22639 46.855 3.22639C43.1573 3.22639 39.4234 3.69765 35.9071 4.64019C27.5692 -1.05129 23.9078 0.108761 23.9078 0.108761C21.5152 6.09025 23.0015 10.5492 23.4366 11.6367C20.6089 14.6818 18.9051 18.5607 18.9051 23.3097C18.9051 26.8986 19.3039 30.125 20.3189 32.9163C15.5337 32.7351 7.99344 32.8076 0.598145 34.2939L0.670647 34.6201C8.06594 33.1338 15.6787 33.0976 20.4277 33.2788C20.6452 33.8589 20.899 34.4389 21.1527 34.9827C16.44 35.1277 8.42846 35.7439 0.74315 37.919L0.851905 38.2453C8.60971 36.0702 16.6938 35.4902 21.3702 35.3452C24.1978 40.5654 29.7081 43.973 39.5685 45.0243C38.1546 45.9668 36.7408 47.5619 36.1608 50.2808C34.2395 51.1871 28.2217 53.4346 24.5966 47.1994C24.5966 47.1994 22.5665 43.5017 18.6876 43.2117C18.6876 43.2117 14.9175 43.1392 18.4339 45.5681C18.4339 45.5681 20.9352 46.7644 22.6753 51.2233C22.6753 51.2233 24.9591 58.8361 35.8708 56.371V64.1651C35.8708 64.1651 35.6533 66.9564 33.0794 67.8627C33.0794 67.8627 31.5569 68.914 33.1882 69.494C33.1882 69.494 40.2572 70.0741 40.2572 64.2738V55.7185C40.2572 55.7185 39.9672 52.3109 41.6348 51.1508V65.2164C41.6348 65.2164 41.526 68.5877 39.786 69.8566C39.786 69.8566 38.6259 71.9229 41.1635 71.3791C41.1635 71.3791 46.0212 70.6903 46.2387 64.9989L46.3475 50.752H47.5075L47.6163 64.9989C47.8338 70.6541 52.6915 71.3791 52.6915 71.3791C55.2291 71.9591 54.069 69.8566 54.069 69.8566C52.329 68.5877 52.2202 65.2164 52.2202 65.2164V51.2596C53.8878 52.5646 53.5978 55.7185 53.5978 55.7185V64.2738C53.5978 70.0741 60.6668 69.494 60.6668 69.494C62.2981 68.914 60.7755 67.8627 60.7755 67.8627C58.2379 66.9202 57.9842 64.1651 57.9842 64.1651V52.9271C57.9842 48.5407 56.1354 46.2206 54.3228 45.0243C64.8357 43.973 69.8747 40.6016 72.1947 35.3089C76.7987 35.4177 85.1003 35.9977 93.0031 38.2453L93.1118 37.919C85.2453 35.7077 77.0162 35.1277 72.3398 34.9827C72.5573 34.4389 72.7385 33.8951 72.9198 33.3151C77.7775 33.1338 85.644 33.1338 93.3293 34.6564Z" fill="#010101"/>
<path id="Vector_6" d="M63.8932 23.0922C66.1408 25.1585 67.4821 27.6236 67.4821 30.27C67.4821 42.7405 58.2017 43.0667 46.7463 43.0667C35.2908 43.0667 26.0104 41.3267 26.0104 30.27C26.0104 27.6236 27.3155 25.1585 29.5631 23.1284C33.297 19.7208 39.6047 21.5334 46.7463 21.5334C53.8878 21.5334 60.1593 19.6845 63.8932 23.0922Z" fill="#F5CCB3"/>
<path id="Vector_7" d="M39.8584 30.9225C39.8584 34.3664 37.9371 37.1215 35.5445 37.1215C33.1519 37.1215 31.2306 34.3301 31.2306 30.9225C31.2306 27.4786 33.1519 24.7235 35.5445 24.7235C37.9371 24.6872 39.8584 27.4786 39.8584 30.9225Z" fill="white"/>
<path id="Vector_8" d="M38.4809 30.995C38.4809 33.2788 37.1759 35.1276 35.617 35.1276C34.022 35.1276 32.7532 33.2788 32.7532 30.995C32.7532 28.7111 34.0582 26.8623 35.617 26.8623C37.1759 26.8623 38.4809 28.7111 38.4809 30.995Z" fill="#AF5C51"/>
<path id="Vector_9" d="M63.0231 30.9225C63.0231 34.3664 61.1018 37.1215 58.7092 37.1215C56.3166 37.1215 54.3953 34.3301 54.3953 30.9225C54.3953 27.4786 56.3166 24.7235 58.7092 24.7235C61.0655 24.6872 63.0231 27.4786 63.0231 30.9225Z" fill="white"/>
<path id="Vector_10" d="M61.6093 30.995C61.6093 33.2788 60.3043 35.1276 58.7455 35.1276C57.1504 35.1276 55.8816 33.2788 55.8816 30.995C55.8816 28.7111 57.1866 26.8623 58.7455 26.8623C60.3405 26.8623 61.6093 28.7111 61.6093 30.995Z" fill="#AF5C51"/>
<path id="Vector_11" d="M47.9063 36.4327C47.9063 37.0127 47.435 37.5202 46.8187 37.5202C46.2387 37.5202 45.7312 37.049 45.7312 36.4327C45.7312 35.8164 46.2025 35.3452 46.8187 35.3452C47.3988 35.3452 47.9063 35.8164 47.9063 36.4327Z" fill="#AF5C51"/>
<path id="Vector_12" d="M44.3174 39.1516C44.2449 38.9703 44.3536 38.7891 44.5349 38.7166C44.7162 38.6441 44.8974 38.7528 44.9699 38.9341C45.2599 39.7316 45.985 40.2391 46.8187 40.2391C47.6525 40.2391 48.3776 39.6953 48.6676 38.9341C48.7401 38.7528 48.9213 38.6441 49.1026 38.7166C49.2838 38.7891 49.3926 38.9703 49.3201 39.1516C48.9576 40.2029 47.9425 40.9279 46.8187 40.9279C45.6949 40.9279 44.6799 40.2029 44.3174 39.1516Z" fill="#AF5C51"/>
<path id="Vector_13" d="M20.3552 44.0817C20.3552 44.3718 20.0289 44.5893 19.5939 44.5893C19.1952 44.5893 18.8326 44.3718 18.8326 44.0817C18.8326 43.7917 19.1589 43.5742 19.5939 43.5742C20.0289 43.5742 20.3552 43.7917 20.3552 44.0817Z" fill="#C4E5D9"/>
<path id="Vector_14" d="M22.4577 45.2418C22.4577 45.5318 22.1315 45.7494 21.6965 45.7494C21.2977 45.7494 20.9352 45.5318 20.9352 45.2418C20.9352 44.9518 21.2614 44.7343 21.6965 44.7343C22.1315 44.7343 22.4577 44.9518 22.4577 45.2418Z" fill="#C4E5D9"/>
<path id="Vector_15" d="M23.7265 46.7644C23.7265 47.0544 23.4003 47.2719 22.9653 47.2719C22.5665 47.2719 22.204 47.0544 22.204 46.7644C22.204 46.4744 22.5302 46.2569 22.9653 46.2569C23.4003 46.2206 23.7265 46.4744 23.7265 46.7644Z" fill="#C4E5D9"/>
<path id="Vector_16" d="M24.8866 48.5045C24.8866 48.7945 24.5604 49.012 24.1254 49.012C23.7266 49.012 23.3641 48.7945 23.3641 48.5045C23.3641 48.2144 23.6903 47.9969 24.1254 47.9969C24.5604 47.9607 24.8866 48.2144 24.8866 48.5045Z" fill="#C4E5D9"/>
<path id="Vector_17" d="M26.1554 50.0995C26.1554 50.3895 25.8292 50.607 25.3942 50.607C24.9954 50.607 24.6329 50.3895 24.6329 50.0995C24.6329 49.8095 24.9591 49.592 25.3942 49.592C25.8292 49.592 26.1554 49.8095 26.1554 50.0995Z" fill="#C4E5D9"/>
<path id="Vector_18" d="M27.8955 51.5133C27.8955 51.8033 27.5692 52.0208 27.1342 52.0208C26.7354 52.0208 26.3729 51.8033 26.3729 51.5133C26.3729 51.2233 26.6992 51.0058 27.1342 51.0058C27.5692 50.9695 27.8955 51.2233 27.8955 51.5133Z" fill="#C4E5D9"/>
<path id="Vector_19" d="M30.3243 52.4196C30.3243 52.7096 29.9981 52.9271 29.563 52.9271C29.1643 52.9271 28.8018 52.7096 28.8018 52.4196C28.8018 52.1296 29.128 51.912 29.563 51.912C29.9981 51.912 30.3243 52.1296 30.3243 52.4196Z" fill="#C4E5D9"/>
<path id="Vector_20" d="M32.7532 52.4196C32.7532 52.7096 32.4269 52.9271 31.9919 52.9271C31.5931 52.9271 31.2306 52.7096 31.2306 52.4196C31.2306 52.1296 31.5569 51.912 31.9919 51.912C32.4269 51.912 32.7532 52.1296 32.7532 52.4196Z" fill="#C4E5D9"/>
<path id="Vector_21" d="M35.2183 52.0208C35.2183 52.3108 34.892 52.5283 34.457 52.5283C34.0583 52.5283 33.6957 52.3108 33.6957 52.0208C33.6957 51.7308 34.022 51.5133 34.457 51.5133C34.8558 51.5133 35.2183 51.7308 35.2183 52.0208Z" fill="#C4E5D9"/>
</g>
</g>
</svg>
