<svg width="94" height="94" viewBox="0 0 94 94" fill="none" xmlns="http://www.w3.org/2000/svg">
<g id="javascript 1" clip-path="url(#clip0_13_469)">
<path id="Vector" d="M79.9 0H14.1C6.31279 0 0 6.31279 0 14.1V79.9C0 87.6872 6.31279 94 14.1 94H79.9C87.6872 94 94 87.6872 94 79.9V14.1C94 6.31279 87.6872 0 79.9 0Z" fill="#F7DF1E"/>
<path id="Vector_2" d="M59.4844 67.9297C61.3203 71.0508 63.8906 73.2539 68.1133 73.2539C71.7852 73.2539 74.1719 71.418 74.1719 68.8477C74.1719 65.9102 71.7852 64.8086 67.7461 62.9727L65.543 62.0547C59.1172 59.3008 54.8945 55.9961 54.8945 48.8359C54.8945 42.2266 59.8516 37.0859 67.7461 37.0859C73.4375 37.0859 77.4766 39.1055 80.2305 44.2461L73.4375 48.6523C71.9688 45.8984 70.3164 44.7969 67.7461 44.7969C65.1758 44.7969 63.5234 46.4492 63.5234 48.6523C63.5234 51.2227 65.1758 52.3242 69.0312 53.9766L71.2344 54.8945C78.7617 58.1992 82.9844 61.3203 82.9844 68.8477C82.9844 76.7422 76.7422 81.1484 68.2969 81.1484C60.0352 81.1484 54.7109 77.293 52.1406 72.1523L59.4844 67.9297ZM28.2734 68.6641C29.7422 71.0508 30.8438 73.2539 33.9648 73.2539C36.9023 73.2539 38.7383 72.1523 38.7383 67.7461V37.2695H47.5508V67.3789C47.5508 76.5586 42.2266 80.5977 34.332 80.5977C27.1719 80.5977 23.1328 76.9258 21.1133 72.5195L28.2734 68.6641Z" fill="black"/>
</g>
<defs>
<clipPath id="clip0_13_469">
<rect width="94" height="94" fill="white"/>
</clipPath>
</defs>
</svg>
