<svg width="94" height="94" viewBox="0 0 94 94" fill="none" xmlns="http://www.w3.org/2000/svg">
<g id="nest-middleware-js 1">
<path id="Vector" fill-rule="evenodd" clip-rule="evenodd" d="M54.3085 5.875C53.7439 5.88142 53.1842 5.98066 52.6517 6.16875C57.3841 9.27662 51.8292 13.7886 54.4142 17.625C54.2334 16.3408 54.4371 15.0318 54.9997 13.8634C55.5622 12.6949 56.4584 11.7192 57.575 11.0597C58.4122 10.3635 58.9468 10.1138 58.7676 8.96231C58.4856 7.07644 55.9711 5.875 54.3085 5.875ZM61.0647 7.09113C60.4126 10.3899 59.596 10.5104 57.1784 12.6342C56.2346 13.3768 55.5682 14.4157 55.2869 15.5833C55.0055 16.7508 55.1255 17.9792 55.6274 19.0703C45.6399 15.1927 32.8383 12.8486 23.453 19.5579C20.0778 21.9696 18.0157 25.4329 13.8532 26.8458C11.1625 27.7652 8.51875 27.495 6.8385 30.1622C6.22183 30.9324 5.8997 31.8971 5.92984 32.8833C5.95999 33.8695 6.34044 34.8127 7.003 35.5438C7.50237 36.0578 8.47175 36.3868 8.87125 36.9097C9.10331 37.2034 9.09743 37.4972 9.31775 37.8879C9.70617 38.7989 10.269 39.6251 10.9745 40.3201C11.4034 40.6756 12.8897 41.0222 13.1424 41.4011C13.4567 41.8741 12.6342 43.7511 13.3245 44.0449C13.7916 44.2593 15.1516 41.8594 15.2838 41.6479C15.0136 43.5367 14.6581 46.8884 16.7819 44.0978C17.7895 42.7729 17.8512 42.3353 19.5461 42.0415C22.8913 41.4686 26.3189 41.5952 29.6126 42.4135C32.9064 43.2318 35.9948 44.7239 38.6829 46.7957C41.371 48.8674 43.6005 51.4739 45.2307 54.4506C46.8609 57.4273 47.8564 60.7096 48.1544 64.0904C47.8372 62.6216 45.919 60.2716 44.133 60.8298C43.3722 61.0648 43.0902 62.3778 42.5908 63.1386C41.9603 64.104 41.1822 64.9644 40.2849 65.6884C40.4381 64.2643 40.3667 62.825 40.0734 61.4231C39.5387 63.6204 38.4666 67.2658 35.767 66.6754C34.8677 66.5381 34.0251 66.1508 33.3353 65.5576C32.6456 64.9645 32.1364 64.1894 31.866 63.3207C31.5164 61.0882 33.8752 58.4709 30.0829 58.2859C22.4748 57.9128 24.2344 69.1017 28.7258 72.0187C27.6936 72.1329 26.6867 72.4136 25.7442 72.85C28.5951 74.5066 31.8074 75.442 35.1019 75.5748C38.3964 75.7076 41.6736 75.0339 44.6485 73.6121C47.6235 72.1904 50.2062 70.0636 52.1723 67.4167C54.1384 64.7698 55.4283 61.6828 55.93 58.4239C56.9762 63.1912 56.3041 68.1748 54.0324 72.4946C53.0815 74.3004 51.8634 75.9523 50.4192 77.3943C49.538 78.2756 47.7931 79.2449 47.2203 80.1585C50.7854 79.6871 54.2692 78.7304 57.575 77.315C54.1533 81.9777 49.6054 85.6969 44.3562 88.125C49.9926 87.726 55.441 85.9304 60.2102 82.9002C64.9794 79.8699 68.9194 75.7003 71.675 70.7673C70.7968 75.7011 68.8465 80.382 65.9616 84.4796C69.8418 81.8819 73.143 78.51 75.6579 74.5756C78.1728 70.6412 79.8471 66.2293 80.5756 61.617C81.2975 64.9935 81.5045 68.4598 81.1896 71.8982C84.3781 67.4697 86.5323 62.3822 87.4937 57.0106C88.4551 51.639 88.199 46.1201 86.7444 40.8606C85.6311 36.7723 83.9617 32.8563 81.7829 29.2222C80.9397 27.8061 80.0168 26.439 79.0187 25.1274C78.6281 24.6192 76.5395 22.7598 76.5395 22.1899C76.5219 22.2467 76.5072 22.2467 76.4954 22.1899C76.4954 31.7838 66.2142 37.7909 57.6044 35.2999C60.9373 35.0383 64.0812 33.6475 66.5167 31.3573C68.9523 29.0671 70.5336 26.0145 70.9994 22.7039C71.3923 19.3562 70.6191 15.9754 68.8099 13.1314C67.0008 10.2874 64.2634 8.15408 61.0647 7.09113Z" fill="url(#paint0_linear_13_492)"/>
<path id="Vector_2" d="M43.005 79.6474L47.9106 76.7099C48.165 77.5581 48.6675 78.3107 49.3533 78.8708C50.0391 79.431 50.8769 79.7731 51.7588 79.853C53.7269 79.853 54.99 79.0893 54.99 76.0636V55.5011H60.865V76.0636C60.9908 77.1287 60.9056 78.2082 60.6142 79.2403C60.3229 80.2725 59.831 81.2371 59.1668 82.0792C58.5026 82.9213 57.679 83.6242 56.7431 84.148C55.8072 84.6717 54.7773 85.006 53.7122 85.1317C53.1021 85.1993 52.4864 85.1993 51.8762 85.1317C49.9945 85.2322 48.1263 84.7614 46.5169 83.7811C44.9075 82.8008 43.6321 81.3568 42.8581 79.6386M64.2725 78.9923L69.1781 76.0548C69.7204 77.1493 70.5579 78.0704 71.596 78.7141C72.6342 79.3577 73.8316 79.6983 75.0531 79.6973C75.9451 79.9195 76.8888 79.7785 77.677 79.3054C78.4651 78.8323 79.0333 78.0657 79.2567 77.174C79.2773 77.0859 79.2978 76.9978 79.3125 76.9067C79.3125 74.8504 77.6675 73.9692 74.9356 72.9117L73.4375 72.2625C69.09 70.4119 66.2113 68.0913 66.2113 63.1856C66.2283 61.052 67.0919 59.0124 68.6122 57.5153C70.1325 56.0181 72.1851 55.1859 74.3187 55.2015C74.5567 55.2015 74.7917 55.2015 75.0296 55.2368C76.7715 55.102 78.5142 55.488 80.0362 56.3458C81.5582 57.2035 82.7909 58.4944 83.5777 60.0543L78.9071 62.9918C78.6017 62.2168 78.0665 61.5538 77.3734 61.0918C76.6803 60.6297 75.8625 60.3907 75.0296 60.4068C74.6889 60.364 74.3432 60.3888 74.0121 60.4799C73.6811 60.5709 73.3712 60.7263 73.1003 60.9372C72.8293 61.1481 72.6026 61.4104 72.4332 61.709C72.2637 62.0076 72.1548 62.3367 72.1127 62.6774C72.0984 62.7816 72.0916 62.8866 72.0921 62.9918C72.0921 64.7836 73.2084 65.518 75.7934 66.6343L77.2915 67.2805C82.25 69.4836 85.1875 71.7161 85.1875 76.7686C85.1875 81.8211 80.9281 85.1405 75.2294 85.1405C73.0053 85.2844 70.787 84.7812 68.8427 83.6917C66.8984 82.6023 65.311 80.9731 64.2725 79.0011" fill="#F7DF1E"/>
</g>
<defs>
<linearGradient id="paint0_linear_13_492" x1="46.9912" y1="88.125" x2="46.9912" y2="5.875" gradientUnits="userSpaceOnUse">
<stop stop-color="#FFB199"/>
<stop offset="1" stop-color="#FF0844"/>
</linearGradient>
</defs>
</svg>
