<svg width="94" height="94" viewBox="0 0 94 94" fill="none" xmlns="http://www.w3.org/2000/svg">
<g id="postgresql-icon 1">
<g id="Group">
<g id="Vector">
<path d="M69.7032 68.4291C70.3017 63.4464 70.1218 62.7193 73.8304 63.5235L74.7741 63.6079C77.6271 63.7364 81.3577 63.1489 83.5866 62.1318C88.3049 59.9434 91.1029 56.2862 86.4506 57.2482C75.8389 59.4367 75.0678 55.8419 75.0678 55.8419C86.278 39.2083 90.967 18.095 86.9169 12.9287C75.8866 -1.17129 56.7892 5.49684 56.4698 5.67309L56.3669 5.69145C54.274 5.25082 51.9607 4.99379 49.2802 4.95707C44.4774 4.88363 40.8349 6.21652 38.0663 8.31316C38.0663 8.31316 4.00234 -5.72074 5.58492 25.9639C5.92273 32.7054 15.242 77.0029 26.3677 63.6006C30.4398 58.7023 34.3687 54.5641 34.3687 54.5641C36.3148 55.8603 38.6538 56.5212 41.103 56.2825L41.2939 56.121C41.2374 56.7557 41.2633 57.395 41.371 58.023C38.5069 61.2249 39.3515 61.7867 33.6234 62.9654C27.8291 64.1587 31.2366 66.2847 33.4544 66.8429C36.1496 67.5185 42.3844 68.4732 46.5998 62.5761L46.4309 63.2481C47.5544 64.1477 47.4773 69.7106 47.6426 73.6836C47.8078 77.6565 48.0685 81.3688 48.88 83.5536C49.6915 85.7383 50.6425 91.3746 58.1698 89.7957C64.4598 88.4482 69.2699 86.5057 69.7105 68.4622" fill="black"/>
<path d="M69.7032 68.4291C70.3017 63.4464 70.1218 62.7193 73.8304 63.5235L74.7741 63.6079C77.6271 63.7364 81.3577 63.1489 83.5866 62.1318C88.3049 59.9434 91.1029 56.2862 86.4506 57.2482C75.8389 59.4367 75.0678 55.8419 75.0678 55.8419C86.278 39.2083 90.967 18.095 86.9169 12.9287C75.8866 -1.17129 56.7892 5.49684 56.4698 5.67309L56.3669 5.69145C54.274 5.25082 51.9607 4.99379 49.2802 4.95707C44.4774 4.88363 40.8349 6.21652 38.0663 8.31316C38.0663 8.31316 4.00234 -5.72074 5.58492 25.9639C5.92273 32.7054 15.2419 77.0029 26.3677 63.6006C30.4398 58.7023 34.3687 54.5641 34.3687 54.5641C36.3148 55.8603 38.6538 56.5212 41.103 56.2825L41.2939 56.121C41.2374 56.7557 41.2633 57.395 41.371 58.023C38.5069 61.2249 39.3515 61.7867 33.6234 62.9654C27.8291 64.1587 31.2366 66.2847 33.4544 66.8429C36.1496 67.5185 42.3844 68.4732 46.5998 62.5761L46.4309 63.2481C47.5544 64.1477 47.4773 69.7106 47.6426 73.6836C47.8078 77.6565 48.0685 81.3688 48.88 83.5536C49.6915 85.7383 50.6425 91.3747 58.1698 89.7957C64.4598 88.4482 69.2699 86.5057 69.7105 68.4622" stroke="black" stroke-width="5.3725"/>
</g>
<path id="Vector_2" d="M86.4176 57.2813C75.8059 59.4697 75.0348 55.8749 75.0348 55.8749C86.245 39.2413 90.934 18.1281 86.8876 12.9617C75.8573 -1.13827 56.7598 5.53353 56.4404 5.7061L56.3376 5.72446C54.005 5.25643 51.6335 5.00932 49.2545 4.98642C44.4517 4.91298 40.8092 6.24587 38.0406 8.34251C38.0406 8.34251 3.97297 -5.69139 5.55922 25.9932C5.89703 32.7348 15.2162 77.0323 26.342 63.6299C30.4398 58.7023 34.3687 54.5641 34.3687 54.5641C36.3148 55.8602 38.6538 56.5212 41.103 56.2825L41.2939 56.1209C41.2378 56.7556 41.2637 57.3949 41.371 58.023C38.507 61.2249 39.3515 61.7867 33.6234 62.9653C27.8291 64.1587 31.2366 66.2847 33.4545 66.8428C36.1496 67.5184 42.3845 68.4731 46.5998 62.5761L46.4309 63.2481C47.5545 64.1477 48.3402 69.0974 48.208 73.5844C48.0759 78.0714 47.9877 81.1484 48.869 83.5572C49.7502 85.966 50.6315 91.3783 58.1588 89.7994C64.4487 88.4518 67.7057 84.9525 68.1647 79.1289C68.4878 74.987 69.2148 75.5966 69.2663 71.8953L69.8538 70.1402C70.5257 64.5222 69.9639 62.712 73.8377 63.5565L74.7814 63.6409C77.6345 63.7695 81.3688 63.182 83.5572 62.1649C88.2756 59.9764 91.0698 56.3192 86.4176 57.2813Z" fill="#336791"/>
<g id="Group_2">
<g id="Group_3">
<path id="Vector_3" d="M47.0514 60.4648C46.7577 70.9149 47.1248 81.4385 48.1456 83.9648C49.1664 86.491 51.3585 91.4921 58.8895 89.8838C65.1795 88.5363 67.4707 85.9256 68.4621 80.1644L70.7864 61.7426M38.0259 8.07814C38.0259 8.07814 3.93625 -5.86029 5.5225 25.8243C5.86031 32.5659 15.1795 76.8634 26.3053 63.461C30.3664 58.5664 34.0383 54.7367 34.0383 54.7367M56.4367 5.53353C55.2617 5.90072 75.3983 -1.82858 86.8472 12.7965C90.8863 17.9628 86.2046 39.0761 74.9944 55.7097" stroke="white" stroke-width="1.79" stroke-linecap="round" stroke-linejoin="round"/>
<path id="Vector_4" d="M74.998 55.7024C74.998 55.7024 75.7324 59.3008 86.3808 57.105C91.0331 56.143 88.2315 59.8002 83.5168 61.9886C79.6466 63.7878 70.9663 64.2468 70.8231 61.7683C70.4559 55.3609 75.3909 57.307 75.0348 55.7024C74.7116 54.2557 72.5012 52.8383 71.0471 49.2986C69.773 46.2142 53.569 22.5307 75.5415 26.0446C76.3493 25.8794 69.8133 5.11495 49.2508 4.81386C28.6883 4.51276 29.3383 30.0947 29.3383 30.0947" stroke="white" stroke-width="1.79" stroke-linecap="round" stroke-linejoin="bevel"/>
</g>
<g id="Group_4">
<path id="Vector_5" d="M41.2976 57.8981C38.4335 61.1 39.2781 61.6618 33.5499 62.8405C27.7557 64.0338 31.1632 66.1598 33.381 66.718C36.0762 67.3936 42.311 68.3483 46.5263 62.4476C47.8115 60.6484 46.519 57.7843 44.7565 57.0573C43.9046 56.7048 42.7663 56.2641 41.3049 57.9018L41.2976 57.8981Z" stroke="white" stroke-width="1.79" stroke-linejoin="round"/>
<path id="Vector_6" d="M41.1103 57.8431C40.8166 55.9594 41.7272 53.7232 42.7002 51.1015C44.1617 47.1726 47.5324 43.2437 44.8373 30.7703C42.8288 21.4805 29.342 28.8353 29.342 30.0947C29.342 31.3542 29.9515 36.4838 29.1217 42.4506C28.0311 50.2423 34.0787 56.8296 41.0406 56.1577" stroke="white" stroke-width="1.79" stroke-linecap="round" stroke-linejoin="round"/>
</g>
</g>
<g id="Group_5">
<path id="Vector_7" d="M37.9011 29.9074C37.8387 30.337 38.6905 31.4863 39.7958 31.6405C40.901 31.7947 41.8447 30.8988 41.9071 30.4655C41.9695 30.0322 41.1176 29.5622 40.0124 29.408C38.9072 29.2538 37.9562 29.4815 37.9011 29.9074Z" fill="white" stroke="white" stroke-width="0.5975"/>
<path id="Vector_8" d="M71.5501 29.0298C71.6089 29.4594 70.7607 30.6087 69.6554 30.763C68.5502 30.9172 67.5992 30.0212 67.5441 29.588C67.489 29.1547 68.3336 28.6847 69.4388 28.5305C70.544 28.3762 71.495 28.6039 71.5501 29.0298Z" fill="white" stroke="white" stroke-width="0.2975"/>
</g>
<path id="Vector_9" d="M75.5011 26.0519C75.6847 29.4301 74.7741 31.725 74.6566 35.3198C74.4877 40.5412 77.1461 46.519 73.1401 52.5041" stroke="white" stroke-width="1.79" stroke-linecap="round" stroke-linejoin="round"/>
</g>
</g>
</svg>
