<svg width="94" height="94" viewBox="0 0 94 94" fill="none" xmlns="http://www.w3.org/2000/svg">
<g id="react-javascript-js-framework-facebook 1" clip-path="url(#clip0_13_461)">
<g id="Icons1">
<g id="react">
<path id="Vector" d="M47.0015 53.5109C50.6339 53.5109 53.5785 50.5663 53.5785 46.9339C53.5785 43.3015 50.6339 40.3568 47.0015 40.3568C43.3691 40.3568 40.4244 43.3015 40.4244 46.9339C40.4244 50.5663 43.3691 53.5109 47.0015 53.5109Z" fill="#00D8FF"/>
<path id="Vector_2" fill-rule="evenodd" clip-rule="evenodd" d="M47.4847 33.0703C58.6986 33.1467 70.9333 33.9648 79.3316 41.4539C79.5783 41.6742 79.8163 41.9034 80.0483 42.1398C82.0297 44.1594 83.0652 47.42 81.4657 50.1034C78.1845 55.6127 70.8466 58.0155 63.7423 59.4946C53.1173 61.7065 42.0077 61.7241 31.3872 59.7766C25.2757 58.6544 19.0262 56.6878 14.6831 52.5738C12.9926 50.9729 11.5473 48.8667 11.7735 46.5226C12.1407 42.7303 15.7788 40.2965 18.8411 38.6486C27.3467 34.072 37.7102 33.0483 47.4847 33.0703ZM46.671 34.7931C36.0607 34.8651 24.5766 35.5422 16.3839 42.3264C16.0975 42.5628 15.8214 42.811 15.5555 43.071C15.3837 43.2384 15.2177 43.4132 15.0576 43.5924C13.6197 45.208 13.1247 47.8033 14.4819 49.7435C15.8478 51.6955 17.9217 53.104 20.0572 54.2526C28.0443 58.5472 37.4825 59.3095 46.6842 59.3418C56.0005 59.3756 65.6076 58.5267 73.837 54.2717C77.1152 52.5753 80.8047 50.0843 80.674 46.8765C80.5536 43.9332 77.6837 42.1149 75.5349 40.8165C74.9533 40.4654 74.3555 40.1409 73.7489 39.8354C65.5797 35.7419 56.0064 34.7726 46.671 34.7931Z" fill="#00D8FF"/>
<path id="Vector_3" fill-rule="evenodd" clip-rule="evenodd" d="M61.8564 15.72C65.9586 15.8243 68.0839 20.7563 68.3644 24.3988C68.4202 25.1229 68.4408 25.85 68.432 26.577C68.4232 27.3643 68.3806 28.1515 68.3116 28.9358C67.4465 38.6472 63.0123 47.8959 57.7909 56.4367C52.6841 64.7909 46.4566 73.1217 37.9848 76.9933C35.1839 78.2741 31.8528 79.0643 29.3735 77.6352C25.9748 75.6773 25.6032 71.0978 25.6664 67.6242C25.6826 66.7708 25.7384 65.9175 25.8265 65.0671C27.1322 52.4946 33.5051 40.5845 41.4804 30.3238C46.1334 24.3372 51.6691 18.399 58.5649 16.2488C59.6503 15.9095 60.5125 15.7038 61.8564 15.72ZM61.6596 17.4414C56.8435 17.5178 52.5196 21.0868 48.6905 24.7954C38.6237 34.5435 31.2051 47.5082 28.2206 61.1044C27.99 62.1575 27.7961 63.2179 27.6536 64.2857C27.5435 65.1126 27.4627 65.9439 27.4201 66.7782C27.3863 67.442 27.3746 68.1074 27.3951 68.7727C27.4098 69.2927 27.4436 69.8126 27.5009 70.3296C27.5435 70.7247 27.6007 71.1183 27.6727 71.509C27.7271 71.7983 27.7902 72.0862 27.8636 72.3726C27.9239 72.6047 27.9914 72.8353 28.0678 73.0644C28.6685 74.8754 30.2166 76.6056 32.2949 76.6628C37.1432 76.795 41.7081 73.2598 45.6546 69.4175C52.5827 62.6745 57.7454 54.2013 61.7786 45.2948C65.0333 38.1038 68.0105 30.2871 66.3478 22.372C66.2847 22.0723 66.2112 21.7757 66.1275 21.4819C66.0585 21.2425 65.9806 21.006 65.8955 20.7725C65.2492 19.0115 63.729 17.437 61.6596 17.4414Z" fill="#00D8FF"/>
<path id="Vector_4" fill-rule="evenodd" clip-rule="evenodd" d="M32.4726 15.7847C37.7072 15.886 42.4087 19.4389 46.5829 23.4178C54.1998 30.6778 59.8178 39.9133 64.0801 49.6335C67.3818 57.1638 70.4192 65.6164 67.7197 73.5624C66.8692 76.0666 64.7175 78.3578 61.8491 78.4166C56.5895 78.5223 51.7147 74.6977 47.4847 70.5808C36.873 60.2496 28.9946 46.6108 26.295 32.1466C26.1012 31.1126 25.9469 30.0697 25.8412 29.0225C25.7545 28.1677 25.7002 27.3085 25.6855 26.4493C25.6737 25.756 25.6884 25.0628 25.7369 24.3725C25.7692 23.9113 25.8162 23.453 25.8794 22.9962C25.9396 22.5674 26.016 22.14 26.1114 21.717C26.1746 21.4364 26.2451 21.1588 26.3259 20.8827C27.1175 18.1758 29.1767 15.7641 32.4726 15.7847ZM32.2743 17.5075C29.209 17.5751 27.8064 21.1897 27.5244 23.7262C27.4671 24.2461 27.4318 24.7705 27.4157 25.2948C27.3951 25.9646 27.4039 26.6358 27.4377 27.3056C27.9195 36.9978 32.2523 46.3685 37.481 54.9489C42.4043 63.027 48.3498 71.0728 56.5278 75.2088C58.8895 76.4029 61.7595 77.3415 63.7996 76.2135C66.3581 74.7976 66.6724 71.4239 66.809 68.9094C66.8457 68.2249 66.8502 67.5376 66.8281 66.8516C66.8017 65.991 66.7341 65.1317 66.6328 64.2769C65.6898 56.2913 62.1531 48.7346 58.0905 41.5936C53.0351 32.7106 46.8414 23.8569 38.0759 19.2318C36.2605 18.2742 34.2953 17.4914 32.2743 17.5075Z" fill="#00D8FF"/>
</g>
</g>
</g>
<defs>
<clipPath id="clip0_13_461">
<rect width="94" height="94" fill="white"/>
</clipPath>
</defs>
</svg>
