<svg width="94" height="94" viewBox="0 0 94 94" fill="none" xmlns="http://www.w3.org/2000/svg">
<g id="sass 1" clip-path="url(#clip0_13_479)">
<path id="Vector" d="M79.9 0H14.1C6.31279 0 0 6.31279 0 14.1V79.9C0 87.6872 6.31279 94 14.1 94H79.9C87.6872 94 94 87.6872 94 79.9V14.1C94 6.31279 87.6872 0 79.9 0Z" fill="#CC6699"/>
<path id="Vector_2" d="M47.3672 16.1563C29.7422 22.2149 18.3594 34.5156 19.461 41.8594C20.5625 49.2031 31.5781 55.0781 36.5352 58.9336C30.1094 62.2383 22.0313 67.1953 22.2149 73.6211C22.582 82.4336 32.1289 79.6797 36.168 77.1094C40.207 74.5391 44.2461 67.3789 41.6758 59.8516C47.3672 58.3828 52.3242 60.2188 53.793 61.3203C59.4844 65.3594 56.5469 69.9492 54.5274 70.6836C52.5078 71.418 53.793 71.7852 55.0781 71.418C56.3633 71.0508 59.1172 69.2149 59.1172 66.0938C59.1172 58.1992 50.6719 54.5274 40.207 57.2813C34.1485 50.8555 25.8867 47.918 26.2539 40.9414C26.4375 38.3711 27.3555 31.7617 43.6953 23.5C60.0352 15.2383 71.6016 18.543 70.1328 26.0703C67.9297 37.4531 48.1016 45.1641 41.125 38.5547C40.7578 37.8203 39.4727 37.2695 40.207 39.2891C43.8789 48.4688 73.6211 44.2461 74.9063 24.7852C75.2735 14.5039 60.4024 11.75 47.3672 16.1563ZM31.5781 74.9063C26.9883 76.375 27.1719 73.4375 27.3555 72.336C27.9063 69.2149 30.4766 65.3594 38.1875 61.5039C40.3906 68.4805 35.4336 73.8047 31.5781 74.9063Z" fill="white"/>
</g>
<defs>
<clipPath id="clip0_13_479">
<rect width="94" height="94" fill="white"/>
</clipPath>
</defs>
</svg>
