<svg width="94" height="94" viewBox="0 0 94 94" fill="none" xmlns="http://www.w3.org/2000/svg">
<g id="typescript 1" clip-path="url(#clip0_13_472)">
<path id="Vector" d="M79.9 0H14.1C6.31279 0 0 6.31279 0 14.1V79.9C0 87.6872 6.31279 94 14.1 94H79.9C87.6872 94 94 87.6872 94 79.9V14.1C94 6.31279 87.6872 0 79.9 0Z" fill="#3178C6"/>
<path id="Vector_2" d="M42.7773 52.1407H54.5273V44.6133H21.6641V52.1407H33.4141V85.7383H42.7773V52.1407ZM58.1992 83.9024C59.6863 84.6735 61.5039 85.2426 63.5234 85.6282C65.543 86.0137 67.7461 86.1973 69.9492 86.1973C72.1523 86.1973 74.1719 85.9953 76.1914 85.5731C78.2109 85.1508 79.8633 84.4532 81.332 83.5535C82.8191 82.5805 84.0859 81.3504 84.8203 79.6981C85.5547 78.0457 86.1238 76.2098 86.1238 73.8231C86.1238 72.1524 85.8668 70.702 85.3711 69.4168C84.8754 68.1317 84.1594 67.0301 83.168 66.1121C82.2316 65.1391 81.1484 64.2762 79.8633 63.5418C78.5781 62.8075 77.1094 62.0364 75.457 61.3387C74.2453 60.843 73.2539 60.3657 72.1523 59.8883C71.1977 59.411 70.3715 58.9336 69.7656 58.4563C69.0863 57.9606 68.5723 57.4465 68.2051 56.9141C67.8379 56.3633 67.6543 55.7575 67.6543 55.0782C67.6543 54.4539 67.8177 53.8848 68.15 53.3707C68.4823 52.8567 68.9395 52.4344 69.527 52.0672C70.1145 51.7 70.8488 51.4246 71.7301 51.2227C72.593 51.0207 73.5477 50.9289 74.6676 50.9289C75.4387 50.9289 76.2465 50.9858 77.0543 51.1015C77.8988 51.2172 78.7617 51.3953 79.6246 51.6339C80.4875 51.8726 81.332 52.1664 82.1949 52.5335C83.0027 52.9007 83.7555 53.323 84.3981 53.8003V45.1714C83.0027 44.639 81.4606 44.2351 79.8082 43.9781C78.1559 43.721 76.3199 43.5925 74.1168 43.5925C71.9137 43.5925 69.8941 43.8312 67.8746 44.2902C65.8551 44.7492 64.2027 45.4835 62.734 46.4933C61.2469 47.4847 60.1637 48.6964 59.2457 50.3488C58.3828 51.891 57.9606 53.6535 57.9606 55.8566C57.9606 58.6105 58.75 60.9972 60.3473 62.8332C61.9262 64.8527 64.3863 66.3214 67.5074 67.7902C68.7742 68.3042 69.8941 68.8183 70.9957 69.314C72.0973 69.8097 73.0152 70.3238 73.7496 70.8562C74.5391 71.3886 75.1633 71.9761 75.5856 72.6003C76.0445 73.2246 76.2832 73.9589 76.2832 74.8035C76.2832 75.391 76.14 75.9417 75.8609 76.4558C75.5819 76.9699 75.1449 77.4105 74.5574 77.7777C73.9699 78.1449 73.2539 78.4386 72.3543 78.6589C71.4914 78.8609 70.5184 78.971 69.2332 78.971C67.2137 78.971 65.1941 78.6222 63.3582 77.9246C61.3387 77.2269 59.5027 76.1804 58.1992 75.0899V83.9024Z" fill="white"/>
</g>
<defs>
<clipPath id="clip0_13_472">
<rect width="94" height="94" fill="white"/>
</clipPath>
</defs>
</svg>
