<svg width="94" height="94" viewBox="0 0 94 94" fill="none" xmlns="http://www.w3.org/2000/svg">
<path id="Vector" d="M43.9218 0.0252957C43.7197 0.0436704 43.0764 0.107982 42.4976 0.153918C29.1464 1.35746 16.6407 8.56031 8.72004 19.631C4.30948 25.7865 1.48856 32.7689 0.422678 40.1647C0.0459433 42.7463 0 43.5088 0 47.0092C0 50.5096 0.0459433 51.2721 0.422678 53.8537C2.97713 71.5026 15.538 86.3309 32.5738 91.8249C35.6244 92.8079 38.8405 93.4786 42.4976 93.8829C43.9218 94.039 50.0782 94.039 51.5024 93.8829C57.8151 93.1846 63.1629 91.6228 68.4371 88.9309C69.2458 88.5175 69.402 88.4072 69.2917 88.3154C69.2182 88.2602 65.7724 83.639 61.6375 78.0531L54.1212 67.9011L44.7028 53.964C39.5204 46.3018 35.2569 40.036 35.2201 40.036C35.1834 40.0268 35.1466 46.2191 35.1283 53.7803C35.1007 67.0192 35.0915 67.552 34.9261 67.8644C34.6872 68.3146 34.5034 68.4983 34.1175 68.7004C33.8235 68.8474 33.5662 68.875 32.1787 68.875H30.5891L30.1664 68.6086C29.8907 68.434 29.6886 68.2043 29.5507 67.9379L29.3578 67.5245L29.3761 49.1039L29.4037 30.6742L29.6886 30.3159C29.8356 30.1229 30.148 29.8749 30.3685 29.7554C30.7453 29.5717 30.8923 29.5533 32.4819 29.5533C34.3564 29.5533 34.6688 29.6268 35.1558 30.1597C35.2936 30.3067 40.3934 37.9873 46.4946 47.2389C52.5959 56.4905 60.9392 69.1231 65.0373 75.3245L72.4802 86.5973L72.8569 86.3493C76.1924 84.1811 79.7208 81.0941 82.5142 77.8786C88.4592 71.0524 92.2909 62.7287 93.5773 53.8537C93.9541 51.2721 94 50.5096 94 47.0092C94 43.5088 93.9541 42.7463 93.5773 40.1647C91.0229 22.5158 78.462 7.68751 61.4262 2.1935C58.4215 1.21965 55.2239 0.548972 51.6403 0.144731C50.7582 0.0528577 44.6845 -0.0482028 43.9218 0.0252957ZM63.1629 28.4508C63.6039 28.6713 63.9623 29.0939 64.0909 29.5349C64.1644 29.7738 64.1828 34.882 64.1644 46.3937L64.1369 62.9124L61.224 58.4474L58.3021 53.9824V41.9746C58.3021 34.2113 58.3388 29.8473 58.3939 29.636C58.541 29.1215 58.8626 28.7173 59.3036 28.4784C59.6804 28.2855 59.8182 28.2671 61.2608 28.2671C62.6207 28.2671 62.8596 28.2855 63.1629 28.4508Z" fill="white"/>
</svg>
